<?xml version="1.0" standalone="no"?>
<!DOCTYPE svg PUBLIC "-//W3C//DTD SVG 20010904//EN"
 "http://www.w3.org/TR/2001/REC-SVG-20010904/DTD/svg10.dtd">
<svg version="1.0" xmlns="http://www.w3.org/2000/svg"
 width="1280.000000pt" height="696.000000pt" viewBox="0 0 1280.000000 696.000000"
 preserveAspectRatio="xMidYMid meet">
<metadata>
Created by potrace 1.15, written by Peter Selinger 2001-2017
</metadata>
<g transform="translate(0.000000,696.000000) scale(0.100000,-0.100000)"
fill="#000000" stroke="none">
<path d="M1790 6465 c0 -19 -66 -21 -73 -2 -3 9 -16 8 -58 -5 -30 -10 -64 -20
-76 -23 -13 -4 -23 -14 -23 -24 0 -24 -58 -50 -69 -32 -8 12 -41 5 -41 -10 0
-4 7 -6 15 -3 27 11 16 -11 -14 -29 -26 -15 -30 -15 -33 -2 -2 13 -9 12 -35
-7 -36 -26 -42 -38 -16 -38 16 0 16 -1 0 -17 -15 -15 -19 -16 -27 -4 -11 19
-24 8 -81 -65 -31 -41 -39 -58 -30 -63 10 -7 10 -15 -3 -40 -17 -31 -36 -41
-36 -18 0 8 -3 7 -10 -3 -5 -8 -6 -18 -1 -23 15 -15 -1 -58 -25 -67 -13 -5
-24 -15 -24 -22 0 -7 -3 -23 -6 -35 -5 -17 -2 -23 10 -23 12 0 14 -7 9 -32 -7
-40 -12 -46 -22 -29 -5 7 -11 -20 -14 -66 -8 -122 -1 -4526 7 -4545 5 -10 15
-18 22 -18 8 0 19 -12 24 -26 13 -34 13 -42 -5 -46 -25 -5 48 -146 77 -150 18
-2 24 -11 28 -38 4 -29 10 -36 35 -40 23 -4 32 -12 40 -38 6 -20 16 -32 26
-32 32 0 49 -12 49 -36 0 -25 26 -44 59 -44 12 0 21 -6 21 -13 0 -7 16 -21 35
-30 43 -21 45 -21 45 -2 0 18 -1 18 39 4 32 -11 40 -24 19 -32 -7 -3 5 -6 28
-6 22 -1 55 -8 72 -17 35 -17 68 -15 65 4 -2 8 11 12 37 12 29 0 40 -4 40 -15
0 -21 68 -21 76 0 8 21 74 21 74 0 0 -11 11 -15 40 -15 29 0 40 4 40 15 0 10
11 15 35 15 24 0 35 -5 35 -15 0 -11 11 -15 40 -15 29 0 40 4 40 15 0 10 11
15 35 15 24 0 35 -5 35 -15 0 -11 11 -15 40 -15 29 0 40 4 40 15 0 10 11 15
35 15 24 0 35 -5 35 -15 0 -11 11 -15 40 -15 29 0 40 4 40 15 0 10 11 15 35
15 24 0 35 -5 35 -15 0 -11 11 -15 40 -15 29 0 40 4 40 15 0 10 11 15 35 15
24 0 35 -5 35 -15 0 -11 11 -15 40 -15 29 0 40 4 40 15 0 10 10 15 34 15 21 0
36 -6 40 -15 3 -9 19 -15 41 -15 24 0 35 4 35 15 0 11 11 15 40 15 29 0 40 -4
40 -15 0 -11 11 -15 35 -15 22 0 38 6 41 15 4 9 19 15 40 15 24 0 34 -5 34
-15 0 -11 11 -15 40 -15 29 0 40 4 40 15 0 10 11 15 35 15 24 0 35 -5 35 -15
0 -11 11 -15 40 -15 29 0 40 4 40 15 0 10 11 15 35 15 24 0 35 -5 35 -15 0
-11 11 -15 40 -15 29 0 40 4 40 15 0 10 11 15 35 15 24 0 35 -5 35 -15 0 -11
11 -15 40 -15 29 0 40 4 40 15 0 10 11 15 35 15 24 0 35 -5 35 -15 0 -11 11
-15 40 -15 29 0 40 4 40 15 0 10 11 15 35 15 24 0 35 -5 35 -15 0 -11 11 -15
40 -15 29 0 40 4 40 15 0 21 66 21 74 0 8 -21 76 -21 76 0 0 11 11 15 40 15
29 0 40 -4 40 -15 0 -21 68 -21 76 0 8 21 74 21 74 0 0 -11 11 -15 40 -15 29
0 40 4 40 15 0 10 11 15 35 15 24 0 35 -5 35 -15 0 -11 11 -15 40 -15 29 0 40
4 40 15 0 10 11 15 35 15 24 0 35 -5 35 -15 0 -11 11 -15 40 -15 29 0 40 4 40
15 0 10 11 15 35 15 24 0 35 -5 35 -15 0 -11 11 -15 40 -15 29 0 40 4 40 15 0
10 11 15 35 15 24 0 35 -5 35 -15 0 -11 11 -15 40 -15 29 0 40 4 40 15 0 10
11 15 35 15 24 0 35 -5 35 -15 0 -11 11 -15 40 -15 29 0 40 4 40 15 0 10 10
15 34 15 21 0 36 -6 40 -15 3 -9 19 -15 41 -15 24 0 35 4 35 15 0 11 11 15 40
15 29 0 40 -4 40 -15 0 -21 68 -21 76 0 8 21 74 21 74 0 0 -11 11 -15 40 -15
29 0 40 4 40 15 0 10 11 15 35 15 24 0 35 -5 35 -15 0 -11 11 -15 40 -15 29 0
40 4 40 15 0 10 11 15 35 15 24 0 35 -5 35 -15 0 -11 11 -15 40 -15 29 0 40 4
40 15 0 10 11 15 35 15 24 0 35 -5 35 -15 0 -11 11 -15 40 -15 29 0 40 4 40
15 0 10 11 15 35 15 24 0 35 -5 35 -15 0 -11 11 -15 40 -15 29 0 40 4 40 15 0
10 11 15 35 15 24 0 35 -5 35 -15 0 -11 11 -15 40 -15 29 0 40 4 40 15 0 10
10 15 34 15 21 0 36 -6 40 -15 3 -9 19 -15 41 -15 24 0 35 4 35 15 0 11 11 15
40 15 29 0 40 -4 40 -15 0 -21 68 -21 76 0 8 21 74 21 74 0 0 -11 11 -15 40
-15 29 0 40 4 40 15 0 10 11 15 35 15 24 0 35 -5 35 -15 0 -11 11 -15 40 -15
29 0 40 4 40 15 0 10 11 15 35 15 24 0 35 -5 35 -15 0 -11 11 -15 40 -15 29 0
40 4 40 15 0 10 11 15 35 15 24 0 35 -5 35 -15 0 -11 11 -15 40 -15 29 0 40 4
40 15 0 10 11 15 35 15 24 0 35 -5 35 -15 0 -11 11 -15 40 -15 29 0 40 4 40
15 0 10 11 15 35 15 24 0 35 -5 35 -15 0 -11 11 -15 40 -15 29 0 40 4 40 15 0
10 10 15 34 15 21 0 36 -6 40 -15 3 -9 19 -15 41 -15 24 0 35 4 35 15 0 11 11
15 40 15 27 0 39 -4 38 -13 -4 -19 71 -22 78 -3 8 22 74 22 74 1 0 -11 11 -15
40 -15 29 0 40 4 40 15 0 10 11 15 35 15 24 0 35 -5 35 -15 0 -11 11 -15 40
-15 29 0 40 4 40 15 0 10 11 15 35 15 24 0 35 -5 35 -15 0 -11 11 -15 40 -15
29 0 40 4 40 15 0 10 11 15 35 15 24 0 35 -5 35 -15 0 -11 11 -15 40 -15 29 0
40 4 40 15 0 10 11 15 35 15 24 0 35 -5 35 -15 0 -11 11 -15 40 -15 29 0 40 4
40 15 0 10 11 15 35 15 24 0 35 -5 35 -15 0 -11 11 -15 40 -15 29 0 40 4 40
15 0 10 10 15 34 15 21 0 36 -6 40 -15 3 -9 19 -15 41 -15 24 0 35 4 35 15 0
11 11 15 40 15 27 0 39 -4 38 -12 -4 -20 71 -23 78 -4 8 22 74 22 74 1 0 -11
11 -15 40 -15 29 0 40 4 40 15 0 10 11 15 35 15 24 0 35 -5 35 -15 0 -11 11
-15 40 -15 29 0 40 4 40 15 0 10 11 15 35 15 24 0 35 -5 35 -15 0 -11 11 -15
40 -15 29 0 40 4 40 15 0 10 11 15 35 15 24 0 35 -5 35 -15 0 -11 11 -15 40
-15 29 0 40 4 40 15 0 10 11 15 35 15 24 0 35 -5 35 -15 0 -11 11 -15 40 -15
29 0 40 4 40 15 0 10 11 15 35 15 24 0 35 -5 35 -15 0 -11 11 -15 40 -15 29 0
40 4 40 15 0 10 10 15 34 15 21 0 36 -6 40 -15 3 -9 19 -15 41 -15 24 0 35 4
35 15 0 11 11 15 40 15 27 0 39 -4 38 -12 -4 -20 71 -23 78 -4 8 22 74 22 74
1 0 -11 11 -15 40 -15 29 0 40 4 40 15 0 10 11 15 35 15 24 0 35 -5 35 -15 0
-11 11 -15 40 -15 29 0 40 4 40 15 0 10 11 15 35 15 24 0 35 -5 35 -15 0 -11
11 -15 40 -15 29 0 40 4 40 15 0 10 11 15 35 15 19 0 35 -4 35 -10 0 -12 67
-13 74 -1 3 4 24 11 46 15 30 5 40 11 40 25 0 10 8 21 18 24 9 2 25 8 35 12
12 5 17 2 17 -10 0 -14 8 -12 52 12 29 15 67 43 85 60 18 18 36 33 41 33 11 0
52 44 52 56 0 5 9 15 20 21 17 12 85 108 97 140 3 7 -2 13 -11 13 -20 0 -20 4
0 41 10 19 21 29 30 25 10 -4 14 4 14 31 0 20 6 41 14 47 7 6 16 26 20 44 4
25 2 32 -10 32 -11 0 -14 9 -12 38 2 23 8 36 16 34 8 -1 12 12 12 43 0 31 -4
44 -12 43 -8 -2 -14 11 -16 35 -2 28 0 37 12 37 12 0 16 10 16 40 0 29 -4 40
-15 40 -10 0 -15 11 -15 35 0 24 5 35 15 35 11 0 15 11 15 40 0 29 -4 40 -15
40 -10 0 -15 11 -15 35 0 24 5 35 15 35 11 0 15 11 15 40 0 29 -4 40 -15 40
-10 0 -15 11 -15 35 0 24 5 35 15 35 11 0 15 11 15 40 0 29 -4 40 -15 40 -10
0 -15 11 -15 35 0 24 5 35 15 35 11 0 15 11 15 40 0 29 -4 40 -15 40 -10 0
-15 11 -15 35 0 24 5 35 15 35 11 0 15 11 15 40 0 29 -4 40 -15 40 -10 0 -15
11 -15 35 0 24 5 35 15 35 11 0 15 11 15 40 0 29 -4 40 -15 40 -10 0 -15 11
-15 35 0 24 5 35 15 35 11 0 15 12 15 45 0 31 -4 44 -12 43 -20 -4 -23 61 -4
68 22 8 22 84 1 84 -10 0 -15 11 -15 35 0 24 5 35 15 35 11 0 15 11 15 40 0
29 -4 40 -15 40 -10 0 -15 11 -15 35 0 24 5 35 15 35 11 0 15 11 15 40 0 29
-4 40 -15 40 -10 0 -15 11 -15 35 0 24 5 35 15 35 11 0 15 11 15 40 0 29 -4
40 -15 40 -10 0 -15 11 -15 35 0 24 5 35 15 35 11 0 15 11 15 40 0 29 -4 40
-15 40 -10 0 -15 11 -15 35 0 24 5 35 15 35 11 0 15 11 15 40 0 29 -4 40 -15
40 -10 0 -15 11 -15 35 0 24 5 35 15 35 11 0 15 11 15 40 0 29 -4 40 -15 40
-10 0 -15 11 -15 35 0 24 5 35 15 35 11 0 15 11 15 39 0 25 -5 41 -15 45 -9 3
-15 18 -15 36 0 18 6 33 15 36 21 8 21 84 0 84 -10 0 -15 11 -15 35 0 24 5 35
15 35 11 0 15 11 15 40 0 29 -4 40 -15 40 -10 0 -15 11 -15 35 0 24 5 35 15
35 11 0 15 11 15 40 0 29 -4 40 -15 40 -10 0 -15 11 -15 35 0 24 5 35 15 35
11 0 15 11 15 40 0 29 -4 40 -15 40 -10 0 -15 11 -15 35 0 24 5 35 15 35 11 0
15 11 15 40 0 29 -4 40 -15 40 -10 0 -15 11 -15 35 0 24 5 35 15 35 11 0 15
11 15 40 0 29 -4 40 -15 40 -10 0 -15 11 -15 35 0 24 5 35 15 35 11 0 15 11
15 40 0 29 -4 40 -15 40 -10 0 -15 11 -15 35 0 24 5 35 15 35 11 0 15 11 15
39 0 25 -5 41 -15 45 -9 3 -15 18 -15 36 0 18 6 33 15 36 10 4 15 20 15 45 0
28 -4 39 -15 39 -10 0 -15 11 -15 35 0 24 5 35 15 35 11 0 15 11 15 40 0 29
-4 40 -15 40 -10 0 -15 11 -15 35 0 24 5 35 15 35 11 0 15 11 15 40 0 29 -4
40 -15 40 -10 0 -15 11 -15 35 0 24 5 35 15 35 11 0 15 11 15 40 0 29 -4 40
-15 40 -10 0 -15 11 -15 35 0 24 5 35 15 35 11 0 15 11 15 39 0 30 -4 40 -20
44 -14 4 -20 14 -20 35 0 17 6 32 13 35 9 3 6 23 -13 78 -21 59 -30 75 -48 77
-22 3 -36 34 -30 63 2 8 -4 13 -14 11 -9 -1 -26 11 -39 29 -18 25 -19 33 -8
40 11 7 11 11 1 21 -10 10 -15 10 -22 -2 -8 -12 -15 -9 -42 18 -27 27 -30 34
-18 42 8 5 11 12 7 16 -3 4 -13 2 -20 -5 -18 -14 -67 22 -67 50 0 15 -7 19
-36 19 -28 0 -37 5 -41 20 -5 20 -50 50 -73 50 -5 0 -10 -7 -10 -16 0 -11 -6
-14 -22 -8 -48 14 -54 23 -18 24 29 1 31 3 15 10 -11 5 -44 6 -73 3 -42 -5
-52 -3 -50 8 2 10 -9 15 -39 17 -34 2 -43 0 -43 -12 0 -12 -10 -16 -35 -16
-24 0 -35 5 -35 15 0 11 -11 15 -40 15 -29 0 -40 -4 -40 -15 0 -10 -11 -15
-35 -15 -24 0 -35 5 -35 15 0 11 -11 15 -40 15 -29 0 -40 -4 -40 -15 0 -10
-11 -15 -35 -15 -24 0 -35 5 -35 15 0 11 -11 15 -40 15 -29 0 -40 -4 -40 -15
0 -10 -11 -15 -35 -15 -24 0 -35 5 -35 15 0 11 -11 15 -40 15 -29 0 -40 -4
-40 -15 0 -10 -11 -15 -35 -15 -24 0 -35 5 -35 15 0 11 -11 15 -40 15 -29 0
-40 -4 -40 -15 0 -10 -11 -15 -35 -15 -24 0 -35 5 -35 15 0 11 -11 15 -40 15
-29 0 -40 -4 -40 -15 0 -10 -11 -15 -35 -15 -24 0 -35 5 -35 15 0 11 -11 15
-40 15 -29 0 -40 -4 -40 -15 0 -11 -11 -15 -40 -15 -27 0 -39 4 -38 13 2 8
-12 13 -39 15 -34 2 -43 0 -43 -12 0 -12 -10 -16 -35 -16 -24 0 -35 5 -35 15
0 11 -11 15 -40 15 -29 0 -40 -4 -40 -15 0 -10 -11 -15 -35 -15 -24 0 -35 5
-35 15 0 11 -11 15 -40 15 -29 0 -40 -4 -40 -15 0 -10 -11 -15 -35 -15 -24 0
-35 5 -35 15 0 11 -11 15 -40 15 -29 0 -40 -4 -40 -15 0 -10 -11 -15 -35 -15
-24 0 -35 5 -35 15 0 11 -11 15 -40 15 -29 0 -40 -4 -40 -15 0 -10 -11 -15
-35 -15 -24 0 -35 5 -35 15 0 11 -11 15 -40 15 -29 0 -40 -4 -40 -15 0 -10
-11 -15 -35 -15 -24 0 -35 5 -35 15 0 11 -11 15 -40 15 -29 0 -40 -4 -40 -15
0 -10 -11 -15 -35 -15 -24 0 -35 5 -35 15 0 11 -11 15 -40 15 -29 0 -40 -4
-40 -15 0 -11 -11 -15 -40 -15 -27 0 -39 4 -38 13 2 8 -12 13 -39 15 -34 2
-43 0 -43 -12 0 -12 -10 -16 -35 -16 -24 0 -35 5 -35 15 0 11 -11 15 -40 15
-29 0 -40 -4 -40 -15 0 -10 -11 -15 -35 -15 -24 0 -35 5 -35 15 0 11 -11 15
-40 15 -29 0 -40 -4 -40 -15 0 -10 -11 -15 -35 -15 -24 0 -35 5 -35 15 0 11
-11 15 -40 15 -29 0 -40 -4 -40 -15 0 -10 -11 -15 -35 -15 -24 0 -35 5 -35 15
0 11 -11 15 -40 15 -29 0 -40 -4 -40 -15 0 -10 -11 -15 -35 -15 -24 0 -35 5
-35 15 0 11 -11 15 -40 15 -29 0 -40 -4 -40 -15 0 -10 -11 -15 -35 -15 -24 0
-35 5 -35 15 0 11 -11 15 -40 15 -29 0 -40 -4 -40 -15 0 -10 -11 -15 -35 -15
-24 0 -35 5 -35 15 0 11 -11 15 -40 15 -29 0 -40 -4 -40 -15 0 -11 -11 -15
-40 -15 -27 0 -39 4 -37 13 1 8 -13 13 -40 15 -34 2 -43 0 -43 -12 0 -12 -10
-16 -35 -16 -24 0 -35 5 -35 15 0 11 -11 15 -40 15 -29 0 -40 -4 -40 -15 0
-10 -11 -15 -35 -15 -24 0 -35 5 -35 15 0 11 -11 15 -40 15 -29 0 -40 -4 -40
-15 0 -10 -11 -15 -35 -15 -24 0 -35 5 -35 15 0 11 -11 15 -40 15 -29 0 -40
-4 -40 -15 0 -10 -11 -15 -35 -15 -24 0 -35 5 -35 15 0 11 -11 15 -40 15 -29
0 -40 -4 -40 -15 0 -10 -11 -15 -35 -15 -24 0 -35 5 -35 15 0 11 -11 15 -40
15 -29 0 -40 -4 -40 -15 0 -10 -11 -15 -35 -15 -24 0 -35 5 -35 15 0 11 -11
15 -40 15 -29 0 -40 -4 -40 -15 0 -10 -11 -15 -35 -15 -24 0 -35 5 -35 15 0
11 -11 15 -40 15 -29 0 -40 -4 -40 -15 0 -11 -11 -15 -40 -15 -27 0 -39 4 -37
13 1 8 -11 12 -38 12 -27 0 -39 -4 -38 -12 2 -9 -10 -13 -37 -13 -29 0 -40 4
-40 15 0 11 -11 15 -40 15 -29 0 -40 -4 -40 -15 0 -10 -11 -15 -35 -15 -24 0
-35 5 -35 15 0 11 -11 15 -40 15 -29 0 -40 -4 -40 -15 0 -10 -11 -15 -35 -15
-24 0 -35 5 -35 15 0 11 -11 15 -40 15 -29 0 -40 -4 -40 -15 0 -10 -11 -15
-35 -15 -24 0 -35 5 -35 15 0 11 -11 15 -40 15 -29 0 -40 -4 -40 -15 0 -10
-11 -15 -35 -15 -24 0 -35 5 -35 15 0 11 -11 15 -40 15 -29 0 -40 -4 -40 -15
0 -10 -11 -15 -35 -15 -24 0 -35 5 -35 15 0 11 -11 15 -40 15 -29 0 -40 -4
-40 -15 0 -10 -11 -15 -35 -15 -24 0 -35 5 -35 15 0 11 -11 15 -40 15 -29 0
-40 -4 -40 -15 0 -11 -11 -15 -40 -15 -27 0 -39 4 -38 13 2 8 -10 12 -37 12
-27 0 -39 -4 -37 -12 1 -9 -11 -13 -38 -13 -29 0 -40 4 -40 15 0 11 -11 15
-40 15 -29 0 -40 -4 -40 -15 0 -10 -11 -15 -35 -15 -24 0 -35 5 -35 15 0 11
-11 15 -40 15 -29 0 -40 -4 -40 -15 0 -10 -11 -15 -35 -15 -24 0 -35 5 -35 15
0 11 -11 15 -40 15 -29 0 -40 -4 -40 -15 0 -10 -11 -15 -35 -15 -24 0 -35 5
-35 15 0 11 -11 15 -40 15 -29 0 -40 -4 -40 -15 0 -10 -11 -15 -35 -15 -24 0
-35 5 -35 15 0 11 -11 15 -40 15 -29 0 -40 -4 -40 -15 0 -10 -11 -15 -35 -15
-24 0 -35 5 -35 15 0 11 -11 15 -40 15 -29 0 -40 -4 -40 -15 0 -10 -11 -15
-35 -15 -24 0 -35 5 -35 15 0 11 -11 15 -40 15 -29 0 -40 -4 -40 -15 0 -11
-11 -15 -40 -15 -27 0 -39 4 -38 13 2 8 -10 12 -37 12 -27 0 -39 -4 -37 -12 1
-9 -11 -13 -38 -13 -29 0 -40 4 -40 15 0 11 -11 15 -40 15 -29 0 -40 -4 -40
-15 0 -10 -11 -15 -35 -15 -24 0 -35 5 -35 15 0 11 -11 15 -40 15 -29 0 -40
-4 -40 -15 0 -10 -11 -15 -35 -15 -24 0 -35 5 -35 15 0 11 -11 15 -40 15 -29
0 -40 -4 -40 -15 0 -10 -11 -15 -35 -15 -24 0 -35 5 -35 15 0 11 -11 15 -40
15 -29 0 -40 -4 -40 -15 0 -10 -11 -15 -35 -15 -24 0 -35 5 -35 15 0 11 -11
15 -40 15 -29 0 -40 -4 -40 -15 0 -10 -11 -15 -35 -15 -24 0 -35 5 -35 15 0
11 -11 15 -40 15 -29 0 -40 -4 -40 -15 0 -10 -11 -15 -35 -15 -24 0 -35 5 -35
15 0 11 -11 15 -40 15 -29 0 -40 -4 -40 -15 0 -21 -66 -21 -74 1 -7 19 -82 16
-78 -3 1 -9 -11 -13 -38 -13 -29 0 -40 4 -40 15 0 11 -11 15 -40 15 -29 0 -40
-4 -40 -15 0 -10 -11 -15 -35 -15 -24 0 -35 5 -35 15 0 11 -11 15 -40 15 -29
0 -40 -4 -40 -15 0 -10 -11 -15 -35 -15 -24 0 -35 5 -35 15 0 11 -11 15 -40
15 -29 0 -40 -4 -40 -15 0 -10 -11 -15 -35 -15 -24 0 -35 5 -35 15 0 11 -11
15 -40 15 -29 0 -40 -4 -40 -15z m-117 -32 c-7 -2 -19 -2 -25 0 -7 3 -2 5 12
5 14 0 19 -2 13 -5z m-385 -243 c-7 -11 -16 -20 -19 -20 -4 0 -5 9 -2 20 3 11
12 20 19 20 12 0 12 -4 2 -20z m10256 -222 c3 -13 6 -30 6 -38 -1 -13 -2 -13
-9 0 -16 27 -22 60 -13 60 5 0 12 -10 16 -22z m-10414 -244 c0 -21 -4 -33 -10
-29 -17 10 -11 65 7 65 2 0 3 -16 3 -36z m0 -150 c0 -21 -4 -33 -10 -29 -17
10 -11 65 7 65 2 0 3 -16 3 -36z m0 -149 c0 -19 -4 -35 -10 -35 -11 0 -14 53
-3 63 11 12 13 8 13 -28z m0 -150 c0 -19 -4 -35 -10 -35 -11 0 -14 53 -3 63
11 12 13 8 13 -28z m0 -156 c0 -24 -4 -38 -10 -34 -17 10 -11 75 7 75 2 0 3
-18 3 -41z m0 -155 c0 -21 -4 -33 -10 -29 -5 3 -10 19 -10 36 0 16 5 29 10 29
6 0 10 -16 10 -36z m0 -150 c0 -21 -4 -33 -10 -29 -5 3 -10 19 -10 36 0 16 5
29 10 29 6 0 10 -16 10 -36z m0 -150 c0 -21 -4 -33 -10 -29 -5 3 -10 19 -10
36 0 16 5 29 10 29 6 0 10 -16 10 -36z m0 -150 c0 -21 -4 -33 -10 -29 -17 10
-11 65 7 65 2 0 3 -16 3 -36z m0 -150 c0 -21 -4 -33 -10 -29 -17 10 -11 65 7
65 2 0 3 -16 3 -36z m0 -149 c0 -19 -4 -35 -10 -35 -11 0 -14 53 -3 63 11 12
13 8 13 -28z m0 -150 c0 -19 -4 -35 -10 -35 -11 0 -14 53 -3 63 11 12 13 8 13
-28z m0 -156 c0 -24 -4 -38 -10 -34 -17 10 -11 75 7 75 2 0 3 -18 3 -41z m0
-155 c0 -21 -4 -33 -10 -29 -5 3 -10 19 -10 36 0 16 5 29 10 29 6 0 10 -16 10
-36z m0 -150 c0 -21 -4 -33 -10 -29 -5 3 -10 19 -10 36 0 16 5 29 10 29 6 0
10 -16 10 -36z m0 -150 c0 -21 -4 -33 -10 -29 -5 3 -10 19 -10 36 0 16 5 29
10 29 6 0 10 -16 10 -36z m0 -150 c0 -21 -4 -33 -10 -29 -17 10 -11 65 7 65 2
0 3 -16 3 -36z m0 -150 c0 -21 -4 -33 -10 -29 -17 10 -11 65 7 65 2 0 3 -16 3
-36z m0 -149 c0 -19 -4 -35 -10 -35 -11 0 -14 53 -3 63 11 12 13 8 13 -28z m0
-150 c0 -19 -4 -35 -10 -35 -11 0 -14 53 -3 63 11 12 13 8 13 -28z m0 -156 c0
-24 -4 -38 -10 -34 -17 10 -11 75 7 75 2 0 3 -18 3 -41z m0 -155 c0 -21 -4
-33 -10 -29 -5 3 -10 19 -10 36 0 16 5 29 10 29 6 0 10 -16 10 -36z m0 -150
c0 -21 -4 -33 -10 -29 -5 3 -10 19 -10 36 0 16 5 29 10 29 6 0 10 -16 10 -36z
m0 -150 c0 -21 -4 -33 -10 -29 -5 3 -10 19 -10 36 0 16 5 29 10 29 6 0 10 -16
10 -36z m0 -150 c0 -21 -4 -33 -10 -29 -17 10 -11 65 7 65 2 0 3 -16 3 -36z
m0 -150 c0 -21 -4 -33 -10 -29 -17 10 -11 65 7 65 2 0 3 -16 3 -36z m0 -149
c0 -19 -4 -35 -10 -35 -11 0 -14 53 -3 63 11 12 13 8 13 -28z m0 -150 c0 -19
-4 -35 -10 -35 -11 0 -14 53 -3 63 11 12 13 8 13 -28z m0 -150 c0 -19 -4 -35
-10 -35 -11 0 -14 53 -3 63 11 12 13 8 13 -28z m1 -190 c-8 -16 -23 45 -15 63
6 13 9 9 14 -18 3 -19 4 -39 1 -45z m10335 -302 c-10 -10 -19 5 -10 18 6 11 8
11 12 0 2 -7 1 -15 -2 -18z m-231 -222 c-3 -6 -14 -11 -23 -11 -15 1 -15 2 2
15 21 16 32 13 21 -4z"/>
</g>
</svg>
